<svg width="9" height="12" viewBox="0 0 9 12" fill="none" xmlns="http://www.w3.org/2000/svg">
<path d="M7.91737 6.27722L0.851374 10.9879C0.801178 11.0213 0.742861 11.0404 0.682635 11.0433C0.622409 11.0462 0.562529 11.0327 0.509373 11.0042C0.456218 10.9758 0.411776 10.9334 0.380783 10.8817C0.34979 10.83 0.333405 10.7708 0.333374 10.7105V1.28922C0.333405 1.22892 0.34979 1.16976 0.380783 1.11804C0.411776 1.06633 0.456218 1.02398 0.509373 0.995522C0.562529 0.967063 0.622409 0.953554 0.682635 0.956436C0.742861 0.959317 0.801178 0.978479 0.851374 1.01188L7.91737 5.72255C7.96303 5.75299 8.00046 5.79423 8.02635 5.84261C8.05224 5.89099 8.06578 5.94501 8.06578 5.99988C8.06578 6.05475 8.05224 6.10878 8.02635 6.15715C8.00046 6.20553 7.96303 6.24678 7.91737 6.27722Z" fill="white"/>
</svg>
